HIERARCHY
ROOT Hips
{
  OFFSET 0 0.240689 0
  CHANNELS 6 Xposition Yposition Zposition Zrotation Xrotation Yrotation
  JOINT Bip01_Spine0
  {
    OFFSET 0 -24.7459 49.7988
    CHANNELS 6 Xposition Yposition Zposition Zrotation Xrotation Yrotation
    JOINT Bip01_Pelvis
    {
      OFFSET 0 0 0
      CHANNELS 6 Xposition Yposition Zposition Zrotation Xrotation Yrotation
      JOINT Bip01_Spine0_Tail
      {
        OFFSET -6.47486 -3.86022 0
        CHANNELS 6 Xposition Yposition Zposition Zrotation Xrotation Yrotation
        JOINT Bip01_Spine0_Tail1
        {
          OFFSET 10.3837 -0.00825882 0
          CHANNELS 6 Xposition Yposition Zposition Zrotation Xrotation Yrotation
          JOINT Bip01_Spine0_Tail2
          {
            OFFSET 10.3837 -0.00826263 0
            CHANNELS 6 Xposition Yposition Zposition Zrotation Xrotation Yrotation
            JOINT Bip01_Spine0_Tail3
            {
              OFFSET 10.3837 -0.00825882 0
              CHANNELS 6 Xposition Yposition Zposition Zrotation Xrotation Yrotation
              JOINT Bip01_Spine0_Tail4
              {
                OFFSET 10.3837 -0.00826263 0
                CHANNELS 6 Xposition Yposition Zposition Zrotation Xrotation Yrotation
                End Site
                {
                  OFFSET 0 0 0
                }
              }
            }
          }
        }
      }
      JOINT Bip01_R_Thigh
      {
        OFFSET 0 -1.52588e-005 -8.75617
        CHANNELS 6 Xposition Yposition Zposition Zrotation Xrotation Yrotation
        JOINT Bip01_R_Calf
        {
          OFFSET 19.7638 0 0
          CHANNELS 6 Xposition Yposition Zposition Zrotation Xrotation Yrotation
          JOINT Bip01_R_Foot
          {
            OFFSET 18.6534 0 0
            CHANNELS 6 Xposition Yposition Zposition Zrotation Xrotation Yrotation
            JOINT Bip01_R_Toe0
            {
              OFFSET 5.09145 13.9567 0
              CHANNELS 6 Xposition Yposition Zposition Zrotation Xrotation Yrotation
              JOINT Bip01_R_Toe01
              {
                OFFSET 4.28803 0 0
                CHANNELS 6 Xposition Yposition Zposition Zrotation Xrotation Yrotation
                JOINT Bip01_R_Toe02
                {
                  OFFSET 3.85801 0 0
                  CHANNELS 6 Xposition Yposition Zposition Zrotation Xrotation Yrotation
                  End Site
                  {
                    OFFSET 0 0 0
                  }
                }
              }
            }
          }
        }
      }
      JOINT Bip01_L_Thigh
      {
        OFFSET 0 1.52588e-005 8.75617
        CHANNELS 6 Xposition Yposition Zposition Zrotation Xrotation Yrotation
        JOINT Bip01_L_Calf
        {
          OFFSET 19.7638 0 0
          CHANNELS 6 Xposition Yposition Zposition Zrotation Xrotation Yrotation
          JOINT Bip01_L_Foot
          {
            OFFSET 18.6534 0 0
            CHANNELS 6 Xposition Yposition Zposition Zrotation Xrotation Yrotation
            JOINT Bip01_L_Toe0
            {
              OFFSET 5.09144 13.9567 0
              CHANNELS 6 Xposition Yposition Zposition Zrotation Xrotation Yrotation
              JOINT Bip01_L_Toe01
              {
                OFFSET 4.28802 0 0
                CHANNELS 6 Xposition Yposition Zposition Zrotation Xrotation Yrotation
                JOINT Bip01_L_Toe02
                {
                  OFFSET 3.85801 0 0
                  CHANNELS 6 Xposition Yposition Zposition Zrotation Xrotation Yrotation
                  End Site
                  {
                    OFFSET 0 0 0
                  }
                }
              }
            }
          }
        }
      }
      JOINT Bip01_Spine
      {
        OFFSET 9.14835 -0.00640869 -1.1e-005
        CHANNELS 6 Xposition Yposition Zposition Zrotation Xrotation Yrotation
        JOINT Bip01_Spine1
        {
          OFFSET 8.04366 -0.00638199 0
          CHANNELS 6 Xposition Yposition Zposition Zrotation Xrotation Yrotation
          JOINT Bip01_Spine2
          {
            OFFSET 8.04367 -0.00639343 0
            CHANNELS 6 Xposition Yposition Zposition Zrotation Xrotation Yrotation
            JOINT Bip01_Spine3
            {
              OFFSET 8.04304 -0.00831222 0
              CHANNELS 6 Xposition Yposition Zposition Zrotation Xrotation Yrotation
              JOINT Bip01_Neck
              {
                OFFSET 10.6685 1.06813 0
                CHANNELS 6 Xposition Yposition Zposition Zrotation Xrotation Yrotation
                JOINT Bip01_R_Clavicle
                {
                  OFFSET -3.21661 -4.89635 -9.04802
                  CHANNELS 6 Xposition Yposition Zposition Zrotation Xrotation Yrotation
                  JOINT Bip01_R_UpperArm
                  {
                    OFFSET 19.0492 0 0
                    CHANNELS 6 Xposition Yposition Zposition Zrotation Xrotation Yrotation
                    JOINT Bip01_R_Forearm
                    {
                      OFFSET 10.3706 0 0
                      CHANNELS 6 Xposition Yposition Zposition Zrotation Xrotation Yrotation
                      JOINT Bip01_R_Hand
                      {
                        OFFSET 22.8632 0 0
                        CHANNELS 6 Xposition Yposition Zposition Zrotation Xrotation Yrotation
                        JOINT Bip01_R_Finger0
                        {
                          OFFSET 6.48259 0.103651 0.504496
                          CHANNELS 6 Xposition Yposition Zposition Zrotation Xrotation Yrotation
                          JOINT Bip01_R_Finger01
                          {
                            OFFSET 3.66847 0 0
                            CHANNELS 6 Xposition Yposition Zposition Zrotation Xrotation Yrotation
                            End Site
                            {
                              OFFSET 0 0 0
                            }
                          }
                        }
                      }
                    }
                  }
                }
                JOINT Bip01_L_Clavicle
                {
                  OFFSET -3.21661 -4.89641 9.04797
                  CHANNELS 6 Xposition Yposition Zposition Zrotation Xrotation Yrotation
                  JOINT Bip01_L_UpperArm
                  {
                    OFFSET 19.0492 0 0
                    CHANNELS 6 Xposition Yposition Zposition Zrotation Xrotation Yrotation
                    JOINT Bip01_L_Forearm
                    {
                      OFFSET 10.3706 0 0
                      CHANNELS 6 Xposition Yposition Zposition Zrotation Xrotation Yrotation
                      JOINT Bip01_L_Hand
                      {
                        OFFSET 22.8631 0 0
                        CHANNELS 6 Xposition Yposition Zposition Zrotation Xrotation Yrotation
                        JOINT Bip01_L_Finger0
                        {
                          OFFSET 6.48257 0.103655 -0.504492
                          CHANNELS 6 Xposition Yposition Zposition Zrotation Xrotation Yrotation
                          JOINT Bip01_L_Finger01
                          {
                            OFFSET 3.66844 0 0
                            CHANNELS 6 Xposition Yposition Zposition Zrotation Xrotation Yrotation
                            End Site
                            {
                              OFFSET 0 0 0
                            }
                          }
                        }
                      }
                    }
                  }
                }
                JOINT Bip01_Neck1
                {
                  OFFSET 7.52459 -0.00656509 0
                  CHANNELS 6 Xposition Yposition Zposition Zrotation Xrotation Yrotation
                  JOINT Bip01_Neck2
                  {
                    OFFSET 8.4783 -0.00588226 0
                    CHANNELS 6 Xposition Yposition Zposition Zrotation Xrotation Yrotation
                    JOINT Bip01_Head
                    {
                      OFFSET 8.41606 0 0
                      CHANNELS 6 Xposition Yposition Zposition Zrotation Xrotation Yrotation
                      JOINT EyesBlue
                      {
                        OFFSET 0 0 0
                        CHANNELS 6 Xposition Yposition Zposition Zrotation Xrotation Yrotation
                        JOINT EyesBlue_2
                        {
                          OFFSET 0 -0.500007 0
                          CHANNELS 6 Xposition Yposition Zposition Zrotation Xrotation Yrotation
                          End Site
                          {
                            OFFSET 0 0 0
                          }
                        }
                      }
                      JOINT Bip01_Head2_Eyeleds
                      {
                        OFFSET 6.52751 7.61746 2.2e-005
                        CHANNELS 6 Xposition Yposition Zposition Zrotation Xrotation Yrotation
                        End Site
                        {
                          OFFSET 0 0 0
                        }
                      }
                      JOINT Bip01_Head_Muzzle
                      {
                        OFFSET 2.88628 13.9448 3.88994
                        CHANNELS 6 Xposition Yposition Zposition Zrotation Xrotation Yrotation
                        End Site
                        {
                          OFFSET 0 0 0
                        }
                      }
                      JOINT Bip01_Head1_Jaw
                      {
                        OFFSET 0.271065 1.32405 0
                        CHANNELS 6 Xposition Yposition Zposition Zrotation Xrotation Yrotation
                        JOINT _Bip01_Head11_TungeControler
                        {
                          OFFSET 4.61616 5.82872 0
                          CHANNELS 6 Xposition Yposition Zposition Zrotation Xrotation Yrotation
                          JOINT _Bip01_Ponytail3_tunge
                          {
                            OFFSET 5.17785 2.98805 0
                            CHANNELS 6 Xposition Yposition Zposition Zrotation Xrotation Yrotation
                            JOINT Bip01_Ponytail31
                            {
                              OFFSET 5.57569 0 0
                              CHANNELS 6 Xposition Yposition Zposition Zrotation Xrotation Yrotation
                              JOINT Bip01_Ponytail32
                              {
                                OFFSET 2.93165 0 0
                                CHANNELS 6 Xposition Yposition Zposition Zrotation Xrotation Yrotation
                                JOINT Bip01_Ponytail3Nub
                                {
                                  OFFSET 3.30155 0 0
                                  CHANNELS 6 Xposition Yposition Zposition Zrotation Xrotation Yrotation
                                  End Site
                                  {
                                    OFFSET 0 0 0
                                  }
                                }
                              }
                            }
                          }
                        }
                        JOINT Bip01_Head_JawNub
                        {
                          OFFSET 15.5776 -0.000389099 0
                          CHANNELS 6 Xposition Yposition Zposition Zrotation Xrotation Yrotation
                          End Site
                          {
                            OFFSET 0 0 0
                          }
                        }
                      }
                      JOINT Bip01_Ponytail2
                      {
                        OFFSET 9.40334 1.03973 -6.51764
                        CHANNELS 6 Xposition Yposition Zposition Zrotation Xrotation Yrotation
                        JOINT Bip01_Ponytail21
                        {
                          OFFSET 2.77018 -0.00640106 1.33514e-005
                          CHANNELS 6 Xposition Yposition Zposition Zrotation Xrotation Yrotation
                          End Site
                          {
                            OFFSET 0 0 0
                          }
                        }
                      }
                      JOINT Bip01_Ponytail1
                      {
                        OFFSET 9.40368 1.03969 6.51768
                        CHANNELS 6 Xposition Yposition Zposition Zrotation Xrotation Yrotation
                        JOINT Bip01_Ponytail11
                        {
                          OFFSET 2.77018 -0.00640487 0
                          CHANNELS 6 Xposition Yposition Zposition Zrotation Xrotation Yrotation
                          End Site
                          {
                            OFFSET 0 0 0
                          }
                        }
                      }
                    }
                  }
                }
              }
            }
          }
        }
      }
    }
  }
}
MOTION
Frames:	4
Frame Time:	0.0333333
0 0 0 -0 -90 -0 0.00122111 -28.7019 14.1537 89.9996 0.00285758 69.4613 0 0 0 -89.9997 4.84393e-005 -90.854 -6.47388 -3.8598 0.0972531 137.382 0.282327 0.928336 10.3809 -0.007484 0.00267 29.5722 -43.8588 1.73702 10.3866 -0.006038 -0.004292 54.2726 -33.9968 -6.0456 10.3872 -0.005786 0.004371 95.1228 3.78617 37.286 10.3879 -0.006749 7.39991e-005 65.5365 0.294432 1.01916 1.3e-005 -1.3e-005 -8.75617 -160.402 0.355734 174.137 19.7638 4.12115e-013 -1e-006 -151.799 0.00246806 -0.00376356 18.6534 -1.06581e-013 3e-006 64.7585 -0.0389719 1.4284 5.09143 13.9567 1.42467e-008 70.4012 -2.79382 -4.14887 4.288 1e-006 1e-006 19.9984 -5.39179e-005 -1.54301e-005 3.85799 -8.32668e-017 0 -45 2.4621e-005 3.94137e-005 -9e-006 9e-006 8.75617 -160.297 -1.07785 -176.134 19.7638 0 -1.42109e-014 -151.829 0.00249986 -0.0036409 18.6534 -1e-006 1.24345e-014 64.8988 -0.346832 -1.56849 5.09143 13.9567 7.1493e-009 70.3999 2.79297 4.14683 4.288 8.88179e-016 -1.77636e-015 19.9991 3.15859e-005 -2.22491e-006 3.85799 -1e-006 -3e-006 -45 -3.36409e-005 -3.02469e-005 9.14721 -0.006322 -0.13727 0.046672 0.000960479 0.860515 8.04461 -0.00633 -7.18783e-015 8.5 7.34777e-006 -1.85935e-005 8.04434 -0.006286 -2e-005 7.97361 0.0015018 0.000886722 8.04535 -0.008087 0.000144 13.1889 -0.000109566 0.00141456 10.6709 1.06821 0.000164 11.2795 0.00129039 0.00103186 -4.96327 -3.11592 -9.0479 168.673 -67.418 142.007 19.0492 -1e-006 -5e-006 81.8566 26.863 -92.4698 10.3706 -2.13163e-014 -1e-006 -118.053 6.82733e-005 -0.000157346 22.8631 -5e-006 -3e-006 12.3182 23.8234 1.41026 6.48256 0.103657 0.504496 -18.2002 -13.6575 -7.39832 3.66843 -2.14939e-013 3e-006 40.107 1.69578e-005 8.51189e-006 -4.96304 -3.11586 9.04777 168.679 74.7507 -141.376 19.0492 5.32907e-015 1e-006 87.1773 -27.4664 89.1664 10.3706 7.10543e-015 7.10543e-015 -118.153 0.000110884 -0.000423722 22.8631 -4.70735e-014 -1e-006 12.703 -34.6281 -2.91897 6.48256 0.10365 -0.504497 -17.3319 13.7668 7.19421 3.66843 -1e-006 -1.95399e-014 39.4727 9.52836e-006 -7.12457e-006 7.52607 -0.006639 2.8e-005 1.75764 0.0385825 0.000569617 8.4743 -0.006572 3e-005 -5.2072 0.000649517 -0.000561727 8.41604 0 1e-006 -75.9666 -0.000300896 0.00267747 -1e-006 4e-006 -3e-006 -23.1098 1.37701e-015 90 -9.53707e-007 -0.5 1.91638e-006 -180 90 -90 0 0 0 -99.435 -7.01671e-015 -180 2.0685 15.2161 3.8903 -22.989 1.37021e-015 90 0 0 0 -85.3358 0.000106811 -180 0 0 0 -120.289 -7.80312e-009 4.01519e-009 0 0 0 133.74 -9.11045e-009 -3.94316e-009 0 0 0 1.83152 -2.23609e-010 -1.70631e-010 0 0 0 -17.65 6.77431e-010 1.68517e-009 0 0 0 -26.1943 -6.01201e-010 2.03883e-009 15.5776 -0.000392 -7e-006 -9.54166e-015 -3.10601e-018 -6.21202e-018 9.40427 1.04082 -6.51497 21.1694 -63.1163 116.9 2.77264 -0.004953 0.002975 29.172 -27.3812 45.0488 9.40468 1.04074 6.51499 21.0774 63.2086 -116.724 2.77262 -0.004961 -0.002922 29.1517 27.4191 -44.9225 
0 0 0 -0 -90 -0 -0.000101181 -28.7019 14.1537 89.9994 -0.00401532 69.4597 0 0 0 -89.9998 -1.93504e-005 -90.865 -6.47384 -3.8598 0.0995103 137.295 0.335553 0.709163 10.3809 -0.007484 0.00267 29.4028 -43.8403 1.72208 10.3866 -0.006038 -0.004292 54.4884 -33.7612 -6.34896 10.3872 -0.005786 0.004371 95.2904 3.60617 37.1928 10.3879 -0.006749 7.39991e-005 59.6394 0.207491 0.909667 1.3e-005 -1.3e-005 -8.75617 -160.554 0.17209 173.636 19.7638 3.606e-013 -1e-006 -151.777 0.00246879 -0.00376502 18.6534 -1.1724e-013 3e-006 64.5991 -0.529827 1.26562 5.09143 13.9567 4.18031e-008 70.4117 -2.79047 -4.14627 4.288 1e-006 1e-006 19.9904 -5.33242e-005 -1.55647e-005 3.85799 -7.77156e-015 -1.77636e-015 -45 2.42886e-005 3.92547e-005 -9e-006 9e-006 8.75617 -160.298 -1.03208 -176.009 19.7638 0 -1.59872e-014 -151.851 0.00250026 -0.00364038 18.6534 -1e-006 7.10543e-015 64.9161 -0.193585 -1.52085 5.09143 13.9567 -1.49724e-009 70.4116 2.80024 4.15277 4.288 -5.77316e-015 0 19.9929 3.14206e-005 -2.18789e-006 3.85799 -1e-006 -3e-006 -45 -3.354e-005 -3.02005e-005 9.14716 -0.006322 -0.140469 0.045579 0.000959193 0.879529 8.04461 -0.00633 -1.02297e-014 8.5 7.34476e-006 -1.85935e-005 8.04434 -0.006286 -2e-005 7.97178 0.0014715 0.000452605 8.04535 -0.008087 0.000144 13.1878 -0.00338445 0.00149266 10.6709 1.06821 0.000164001 11.1496 0.00128806 0.00103478 -4.9562 -3.12719 -9.0479 168.802 -67.4239 142.024 19.0492 -1e-006 -5e-006 81.7257 26.5454 -92.3936 10.3706 -2.84217e-014 -1e-006 -117.996 6.99599e-005 -0.000157276 22.8631 -5e-006 -3e-006 11.9182 23.8174 1.51745 6.48256 0.103657 0.504496 -18.2002 -13.6575 -7.39832 3.66843 -2.17604e-013 3e-006 40.107 1.71818e-005 8.399e-006 -4.95598 -3.12715 9.04777 168.813 74.7705 -141.458 19.0492 8.88178e-015 1e-006 87.0768 -26.8977 89.1633 10.3706 -1.06581e-014 0 -118.236 0.000111112 -0.000423798 22.8631 -2.30927e-014 -1e-006 12.3459 -34.5455 -3.00895 6.48256 0.10365 -0.504497 -17.42 13.7559 7.21535 3.66843 -1e-006 -1.95399e-014 39.4727 9.69829e-006 -7.19444e-006 7.52607 -0.006639 2.8e-005 1.68849 0.0385687 0.00017383 8.4743 -0.006572 3e-005 -5.28096 -0.000183369 0.00278173 8.41604 0 1e-006 -76.0507 0.000893725 0.010989 -1e-006 4e-006 -3e-006 -23.1098 1.37701e-015 90 -9.53722e-007 -0.5 1.91545e-006 180 90 -90 0 0 0 -100.085 7.01671e-015 -180 2.0685 15.2161 3.8903 -22.989 1.37021e-015 90 0 0 0 -85.3358 0.000106811 -180 0 0 0 -120.289 -9.27833e-009 4.99713e-009 0 0 0 133.74 -1.0826e-008 -4.59463e-009 0 0 0 1.83152 -2.4905e-010 -2.0554e-010 0 0 0 -17.65 5.79012e-010 2.02388e-009 0 0 0 -26.1943 -1.02592e-009 2.55212e-009 15.5776 -0.000392 -7e-006 -9.54166e-015 -9.31803e-018 -0 9.40427 1.04082 -6.51497 22.1895 -63.223 118.121 2.77264 -0.004953 0.002975 29.3767 -27.4567 45.3357 9.40468 1.04074 6.51499 22.0969 63.3203 -117.941 2.77262 -0.004961 -0.002922 29.3551 27.4966 -45.2036 
0 0 0 -0 -90 -0 0.000359423 -28.7019 14.1534 90 -0.00089047 69.4622 0 0 0 -90.0002 -3.04361e-005 -90.8593 -6.47387 -3.8598 0.0998543 137.323 0.382835 0.473837 10.3809 -0.007484 0.00267 28.9627 -43.6534 1.59758 10.3866 -0.006038 -0.004292 54.3198 -33.2659 -6.44672 10.3872 -0.005786 0.004371 94.924 3.25175 37.1027 10.3879 -0.006749 7.39991e-005 53.714 0.14096 0.764222 1.3e-005 -1.3e-005 -8.75617 -160.719 -0.0547096 173.049 19.7638 3.39284e-013 -1e-006 -151.722 0.00246767 -0.00376702 18.6534 -1.13687e-013 3e-006 64.4095 -1.12447 1.04727 5.09143 13.9567 7.53187e-008 70.3912 -2.79106 -4.14805 4.288 1e-006 1e-006 20.0073 -5.26702e-005 -1.57101e-005 3.85799 4.46865e-015 5.32907e-015 -45 2.38995e-005 3.90759e-005 -9e-006 9e-006 8.75617 -160.37 -0.950718 -175.8 19.7638 1.77636e-015 -3.55271e-015 -151.822 0.0024977 -0.00364059 18.6534 -1e-006 1.24345e-014 64.8357 0.0189646 -1.44489 5.09143 13.9567 -1.34585e-008 70.3916 2.79526 4.14969 4.288 -2.22045e-016 -1.77636e-015 20.0065 3.11296e-005 -2.14147e-006 3.85799 -1e-006 -3e-006 -45 -3.33541e-005 -3.00881e-005 9.14715 -0.006322 -0.141037 0.0476824 0.000992467 0.88071 8.04461 -0.00633 -4.45651e-015 8.5 7.3424e-006 -1.85935e-005 8.04434 -0.006286 -2e-005 7.97552 0.00149116 0.00070614 8.04535 -0.008087 0.000144 13.19 0.00439838 0.00041538 10.6709 1.06821 0.000164001 10.9837 0.00128507 0.0010385 -4.94701 -3.14153 -9.0479 168.972 -67.4128 141.986 19.0492 -1e-006 -5e-006 81.584 26.2584 -92.3524 10.3706 -2.13163e-014 -1e-006 -117.918 7.14314e-005 -0.000157496 22.8631 -5e-006 -3e-006 11.4527 23.7551 1.63785 6.48256 0.103657 0.504496 -18.2002 -13.6575 -7.39832 3.66843 -2.3892e-013 3e-006 40.107 1.7386e-005 8.2931e-006 -4.94683 -3.14148 9.04777 168.971 74.7796 -141.478 19.0492 1.95399e-014 1e-006 87.0118 -26.5512 89.2206 10.3706 0 0 -118.173 0.000111047 -0.000423691 22.8631 -4.79617e-014 -1e-006 12.0228 -34.4528 -3.06239 6.48256 0.10365 -0.504497 -17.5009 13.7461 7.23419 3.66843 -1e-006 -2.66454e-014 39.4727 9.83234e-006 -7.25745e-006 7.52607 -0.006639 2.8e-005 1.60249 0.0385721 0.000364021 8.4743 -0.006572 3e-005 -5.37088 0.00017168 0.00147264 8.41604 7.10543e-015 1e-006 -76.1769 0.00131281 0.00068915 -1e-006 4e-006 -3e-006 -23.1098 1.37701e-015 90 -9.53704e-007 -0.5 1.91422e-006 180 90 -90 0 0 0 -100.735 -7.01671e-015 -180 2.0685 15.2161 3.8903 -22.989 1.37021e-015 90 0 0 0 -85.3358 0.000106811 -180 0 0 0 -120.289 -3.28313e-009 2.31459e-009 0 0 0 133.74 -3.21375e-009 -1.39526e-009 0 0 0 1.83152 9.47937e-011 -6.00327e-011 0 0 0 -17.65 -1.12251e-009 5.40539e-010 0 0 0 -26.1943 -1.55613e-009 1.2454e-009 15.5776 -0.000392 -7e-006 6.36111e-015 9.31803e-018 6.21202e-018 9.40427 1.04082 -6.51497 24.3179 -63.4212 120.659 2.77264 -0.004953 0.002975 29.8008 -27.613 45.9316 9.40468 1.04074 6.51499 24.2247 63.5299 -120.47 2.77262 -0.004961 -0.002922 29.7768 27.6577 -45.7865 
0 0 0 -0 -90 -0 0.000796205 -28.7019 14.1533 90.0005 0.00199257 69.4644 0 0 0 -90.0005 -4.16094e-005 -90.8538 -6.47389 -3.8598 0.100118 137.355 0.429481 0.239543 10.3809 -0.007484 0.00267 28.5219 -43.4651 1.47308 10.3866 -0.006038 -0.004292 54.1567 -32.7605 -6.50728 10.3872 -0.005786 0.004371 94.5461 2.89654 37.0212 10.3879 -0.006749 7.39991e-005 47.7874 0.0759781 0.618528 1.3e-005 -1.3e-005 -8.75617 -160.891 -0.280287 172.462 19.7638 2.98428e-013 -1e-006 -151.67 0.00246639 -0.00376877 18.6534 -1.38556e-013 3e-006 64.2155 -1.71952 0.829024 5.09143 13.9567 1.08858e-007 70.3737 -2.79169 -4.14969 4.288 1e-006 1e-006 20.0217 -5.20215e-005 -1.5856e-005 3.85799 2.77556e-016 0 -45 2.3515e-005 3.89011e-005 -9e-006 9e-006 8.75617 -160.435 -0.869459 -175.59 19.7638 3.55271e-015 1.24345e-014 -151.797 0.00249545 -0.00364075 18.6534 -1e-006 3.55271e-015 64.7656 0.232063 -1.37001 5.09143 13.9567 -2.54471e-008 70.3745 2.7908 4.14684 4.288 -1.33227e-015 1.77636e-015 20.0182 3.08392e-005 -2.09452e-006 3.85799 -1e-006 -3e-006 -45 -3.31688e-005 -2.99764e-005 9.14715 -0.006322 -0.141487 0.0494307 0.00101998 0.881443 8.04461 -0.00633 -2.15106e-016 8.5 7.34025e-006 -1.85935e-005 8.04434 -0.006286 -2e-005 7.97872 0.00151053 0.000956895 8.04535 -0.008087 0.000144 13.192 0.0110356 -0.000520708 10.6709 1.06821 0.000164001 10.8178 0.00128207 0.00104222 -4.93782 -3.15587 -9.0479 169.142 -67.4032 141.954 19.0492 -1e-006 -5e-006 81.441 25.9625 -92.3066 10.3706 -2.13163e-014 -1e-006 -117.84 7.29635e-005 -0.000157705 22.8631 -5e-006 -3e-006 10.9838 23.6976 1.75988 6.48256 0.103657 0.504496 -18.2002 -13.6575 -7.39832 3.66843 -2.31815e-013 3e-006 40.107 1.75966e-005 8.18436e-006 -4.93768 -3.15579 9.04777 169.13 74.7903 -141.506 19.0492 1.95399e-014 1e-006 86.941 -26.1724 89.271 10.3706 2.13163e-014 -3.55272e-015 -118.122 0.00011103 -0.000423588 22.8631 -2.13163e-014 -1e-006 11.6874 -34.3595 -3.12112 6.48256 0.10365 -0.504497 -17.5846 13.7359 7.25375 3.66843 -1e-006 -2.4869e-014 39.4727 9.97253e-006 -7.32304e-006 7.52607 -0.006639 2.8e-005 1.51635 0.0385743 0.00052687 8.4743 -0.006572 3e-005 -5.46086 0.000519208 0.000253154 8.41604 -3.55271e-015 1e-006 -76.302 0.00168382 -0.00827858 -1e-006 4e-006 -3e-006 -23.1098 1.37701e-015 90 -9.53688e-007 -0.5 1.913e-006 -180 90 -90 0 0 0 -101.385 -7.01671e-015 -180 2.0685 15.2161 3.8903 -22.989 1.37021e-015 90 0 0 0 -85.3358 0.000106811 -180 0 0 0 -120.289 1.84784e-009 -6.66803e-011 0 0 0 133.74 3.45436e-009 1.30687e-009 0 0 0 1.83152 4.12277e-010 7.04144e-011 0 0 0 -17.65 -2.68897e-009 -7.92855e-010 0 0 0 -26.1943 -2.04939e-009 8.70638e-011 15.5776 -0.000392 -7e-006 -6.36111e-015 0 -0 9.40427 1.04082 -6.51497 26.4503 -63.5632 123.208 2.77264 -0.004953 0.002975 30.2243 -27.7604 46.5219 9.40468 1.04074 6.51499 26.3587 63.6836 -123.012 2.77262 -0.004961 -0.002922 30.1979 27.8101 -46.3641 
